<?xml version="1.0" encoding="utf-8"?>
<!-- Generator: Adobe Illustrator 19.1.1, SVG Export Plug-In . SVG Version: 6.00 Build 0)  -->
<svg version="1.1" id="Layer_1" xmlns="http://www.w3.org/2000/svg" xmlns:xlink="http://www.w3.org/1999/xlink" x="0px" y="0px"
	 viewBox="0 0 24 24" style="enable-background:new 0 0 24 24;" xml:space="preserve">
<style type="text/css">
	.st0{fill:#FFF8E6;}
	.st1{fill:#78C19D;}
	.st2{fill:#144733;}
	.st3{fill:#F7901E;}
	.st4{opacity:0.4;}
	.st5{clip-path:url(#XMLID_462_);}
	.st6{clip-path:url(#XMLID_479_);}
	.st7{clip-path:url(#XMLID_717_);}
	.st8{fill:#FFF9E7;}
	.st9{opacity:0.3;fill:#114632;}
	.st10{fill:#114632;}
	.st11{fill:#FFFFFF;}
	.st12{opacity:0.7;fill:#114632;}
	.st13{fill:none;stroke:#114632;stroke-width:2;stroke-miterlimit:10;}
	.st14{opacity:0.5;fill:#114632;}
	.st15{opacity:0.7;fill:none;stroke:#114632;stroke-linejoin:bevel;stroke-miterlimit:10;}
	.st16{opacity:0.3;}
	.st17{opacity:0.7;fill:#F7901E;}
	.st18{fill:none;stroke:#F7901E;stroke-width:2;stroke-miterlimit:10;}
	.st19{opacity:0.5;fill:#F7901E;}
	.st20{opacity:0.7;fill:none;stroke:#F7901E;stroke-linejoin:bevel;stroke-miterlimit:10;}
	.st21{fill:#1D7453;}
	.st22{fill:#164538;}
	.st23{fill:none;stroke:#FFFFFF;stroke-miterlimit:10;}
	.st24{opacity:0.3;fill:#FFFFFF;}
	.st25{fill:none;stroke:#FFF9E7;stroke-width:2;stroke-miterlimit:10;}
	.st26{opacity:0.5;fill:#C8E0D7;}
	.st27{opacity:0.7;fill:none;stroke:#C8E0D7;stroke-linejoin:bevel;stroke-miterlimit:10;}
	.st28{clip-path:url(#XMLID_719_);}
	.st29{clip-path:url(#XMLID_723_);}
	.st30{fill:#154733;}
	.st31{fill:#5AB085;}
	.st32{fill:#F7901E;stroke:#F7901E;stroke-width:2;stroke-miterlimit:10;}
	.st33{fill:#F2F2F2;}
	.st34{fill:#F2F2F2;stroke:#E0E0E0;stroke-miterlimit:10;}
	.st35{fill:#C8E8D8;}
	.st36{fill:#ABABAB;}
	.st37{fill:#FFFFFF;stroke:#E5E5E5;stroke-miterlimit:10;}
	.st38{display:none;fill:#FFFFFF;stroke:#E5E5E5;stroke-miterlimit:10;}
	.st39{fill:#257958;}
	.st40{fill:#BAE3CF;}
	.st41{display:none;}
	.st42{fill:#FFFFFF;stroke:#78C19D;stroke-miterlimit:10;}
	.st43{fill:#FFFFFF;stroke:#F1F1F1;stroke-miterlimit:10;}
	.st44{fill:none;stroke:#78C19D;stroke-miterlimit:10;}
	.st45{fill:#78C19D;stroke:#78C19D;stroke-miterlimit:10;}
	.st46{fill:#B2B2B2;}
	.st47{fill:none;stroke:#B2B2B2;stroke-miterlimit:10;}
	.st48{fill:#B2B2B2;stroke:#B2B2B2;stroke-miterlimit:10;}
	.st49{fill:none;stroke:#78C19D;stroke-width:0.5;stroke-miterlimit:10;}
	.st50{clip-path:url(#XMLID_901_);}
	.st51{clip-path:url(#XMLID_902_);}
	.st52{fill:#FFFBF2;}
	.st53{fill:#FFFBF2;stroke:#F0EBDF;stroke-miterlimit:10;}
	.st54{fill:#FFFFFF;stroke:#E8DBBA;stroke-miterlimit:10;}
	.st55{fill:#636363;}
	.st56{opacity:0.75;}
	.st57{fill:#F5EEDC;}
	.st58{fill:none;stroke:#F5EEDC;stroke-miterlimit:10;}
	.st59{fill:#F5EEDC;stroke:#F5EEDC;stroke-miterlimit:10;}
	.st60{opacity:0.1;}
</style>
<g id="New_Symbol">
</g>
<g id="XMLID_465_">
	<g id="XMLID_2096_">
		<g id="XMLID_2105_">
			<g id="XMLID_2106_">
				<path id="XMLID_2114_" class="st3" d="M6.2,21.4C6.2,21.4,6.2,21.3,6.2,21.4c0,0,0.1,0.1,0.1,0.1c0,0,0.1,0,0.1,0
					c0,0,0.1,0,0.1,0c0.1,0,0.2,0,0.2,0c0.1,0,0.1,0,0.1-0.1c0,0,0.1,0,0.1-0.1c0,0,0,0,0.1-0.1c0,0,0-0.1,0.1-0.1c0,0,0-0.1,0-0.2
					c0-0.1,0-0.1,0-0.2c0-0.1,0-0.2,0-0.3v-1.8c0,0,0-0.1,0-0.1c0,0,0-0.1,0.1-0.1c0,0,0.1,0,0.1-0.1c0,0,0.1,0,0.1,0
					c0,0,0.1,0,0.1,0c0,0,0.1,0,0.1,0.1c0,0,0,0.1,0.1,0.1c0,0,0,0.1,0,0.1v1.8c0,0.1,0,0.2,0,0.3c0,0.1,0,0.2,0,0.3
					c0,0.1,0,0.2-0.1,0.2c0,0.1-0.1,0.1-0.1,0.2c0,0.1-0.1,0.1-0.2,0.2c-0.1,0.1-0.1,0.1-0.2,0.1C7.1,21.9,7,22,6.9,22
					c-0.1,0-0.2,0-0.3,0c-0.1,0-0.1,0-0.2,0c0,0,0,0,0,0c-0.1,0-0.1,0-0.2-0.1c-0.1,0-0.1-0.1-0.2-0.2l0,0c0,0,0-0.1,0-0.1
					c0,0,0-0.1,0-0.1c0,0,0-0.1,0-0.1c0,0,0-0.1,0.1-0.1l0,0c0,0,0.1,0,0.1,0C6.1,21.3,6.2,21.3,6.2,21.4"/>
				<path id="XMLID_2111_" class="st3" d="M10.2,22C10.2,22,10.1,22,10.2,22c-0.1,0-0.1,0-0.1,0c0,0,0,0,0,0c0,0,0,0-0.1,0
					c-0.1,0-0.1,0-0.2,0c-0.1,0-0.1,0-0.2,0c-0.1,0-0.2,0-0.3,0c-0.1,0-0.2,0-0.2,0c-0.1,0-0.2,0-0.2,0c-0.1,0-0.1,0-0.2-0.1
					c-0.1,0-0.1-0.1-0.2-0.1c-0.1,0-0.1-0.1-0.1-0.1c0,0-0.1-0.1-0.1-0.2c0-0.1-0.1-0.1-0.1-0.2c0-0.1,0-0.1,0-0.2
					c0-0.1,0-0.1,0-0.2c0-0.1,0-0.1,0.1-0.2c0-0.1,0.1-0.1,0.1-0.2c0,0,0.1-0.1,0.1-0.1c0,0,0.1-0.1,0.2-0.1c0.1,0,0.1,0,0.2-0.1
					c0.1,0,0.1,0,0.2,0c0.1,0,0.2,0,0.2,0c0.1,0,0.2,0,0.3,0c0.1,0,0.2,0,0.2,0c0.1,0,0.1,0,0.2,0v-0.1c0-0.1,0-0.1,0-0.2
					c0,0,0-0.1-0.1-0.1c0,0-0.1-0.1-0.2-0.1c-0.1,0-0.2,0-0.4,0c-0.1,0-0.1,0-0.2,0c0,0-0.1,0-0.1,0c0,0-0.1,0-0.1,0
					c0,0-0.1,0-0.1,0c0,0-0.1,0-0.1,0c0,0-0.1,0-0.1,0l0,0c0,0-0.1,0-0.1-0.1c0,0,0-0.1-0.1-0.1l0,0c0,0,0-0.1,0-0.1
					c0,0,0-0.1,0-0.1l0,0l0,0c0,0,0-0.1,0.1-0.1c0,0,0.1,0,0.1-0.1c0,0,0.1,0,0.1-0.1c0.1,0,0.1,0,0.2,0c0.1,0,0.1,0,0.2,0
					c0.1,0,0.1,0,0.2,0c0.1,0,0.2,0,0.3,0c0.1,0,0.2,0,0.2,0c0.1,0,0.1,0,0.2,0.1c0.1,0,0.1,0,0.2,0.1c0.1,0,0.1,0.1,0.2,0.1
					c0,0,0.1,0.1,0.1,0.2c0,0.1,0.1,0.1,0.1,0.2c0,0.1,0,0.1,0,0.2v1.5c0,0,0,0.1,0,0.1c0,0,0,0.1-0.1,0.1c0,0-0.1,0-0.1,0.1
					C10.3,22,10.2,22,10.2,22z M9.3,20.8c-0.1,0-0.1,0-0.2,0c-0.1,0-0.1,0-0.1,0c0,0-0.1,0-0.1,0c0,0-0.1,0-0.1,0c0,0,0,0,0,0
					c0,0,0,0,0,0c0,0,0,0,0,0.1c0,0,0,0,0,0.1c0,0,0,0.1,0,0.1c0,0,0,0,0,0.1c0,0,0,0,0,0c0,0,0,0,0.1,0c0,0,0.1,0,0.1,0
					c0,0,0.1,0,0.1,0c0,0,0.1,0,0.1,0c0.1,0,0.1,0,0.2,0c0.1,0,0.1,0,0.2,0c0.1,0,0.1,0,0.2,0c0.1,0,0.1,0,0.2,0c0,0,0.1,0,0.1,0
					c0,0,0,0,0,0c0,0,0-0.1,0-0.1c0,0,0-0.1,0-0.1c0-0.1,0-0.1,0-0.1c0,0,0-0.1,0-0.1c0,0,0,0,0,0c0,0,0,0-0.1,0c0,0-0.1,0-0.2,0
					c-0.1,0-0.1,0-0.2,0C9.4,20.8,9.3,20.8,9.3,20.8z"/>
				<path id="XMLID_2110_" class="st3" d="M12,22C12,22,11.9,22,12,22c-0.1,0-0.1,0-0.1,0c0,0,0,0-0.1,0c0,0,0,0,0-0.1l-0.9-2.1
					c0,0,0-0.1,0-0.1c0,0,0-0.1,0-0.1c0,0,0-0.1,0.1-0.1c0,0,0.1,0,0.1-0.1c0,0,0.1,0,0.1,0c0,0,0.1,0,0.1,0c0,0,0.1,0,0.1,0.1
					c0,0,0,0.1,0.1,0.1L12,21l0.7-1.5c0,0,0-0.1,0.1-0.1c0,0,0.1,0,0.1-0.1c0,0,0.1,0,0.1,0c0,0,0.1,0,0.1,0c0,0,0.1,0,0.1,0.1
					c0,0,0,0.1,0.1,0.1c0,0,0,0.1,0,0.1c0,0,0,0.1,0,0.1l-0.9,2.1c0,0,0,0,0,0.1c0,0,0,0-0.1,0C12.1,22,12.1,22,12,22
					C12.1,22,12,22,12,22z"/>
				<path id="XMLID_2107_" class="st3" d="M15.6,22C15.6,22,15.6,22,15.6,22c-0.1,0-0.1,0-0.1,0c0,0,0,0,0,0c0,0,0,0-0.1,0
					c-0.1,0-0.1,0-0.2,0c-0.1,0-0.1,0-0.2,0c-0.1,0-0.2,0-0.3,0c-0.1,0-0.2,0-0.2,0c-0.1,0-0.2,0-0.2,0c-0.1,0-0.1,0-0.2-0.1
					c-0.1,0-0.1-0.1-0.2-0.1c-0.1,0-0.1-0.1-0.1-0.1c0,0-0.1-0.1-0.1-0.2c0-0.1-0.1-0.1-0.1-0.2c0-0.1,0-0.1,0-0.2
					c0-0.1,0-0.1,0-0.2c0-0.1,0-0.1,0.1-0.2c0-0.1,0.1-0.1,0.1-0.2c0,0,0.1-0.1,0.1-0.1c0,0,0.1-0.1,0.2-0.1c0.1,0,0.1,0,0.2-0.1
					c0.1,0,0.1,0,0.2,0c0.1,0,0.2,0,0.2,0c0.1,0,0.2,0,0.3,0c0.1,0,0.2,0,0.2,0c0.1,0,0.1,0,0.2,0v-0.1c0-0.1,0-0.1,0-0.2
					c0,0,0-0.1-0.1-0.1c0,0-0.1-0.1-0.2-0.1c-0.1,0-0.2,0-0.4,0c-0.1,0-0.1,0-0.2,0c0,0-0.1,0-0.1,0c0,0-0.1,0-0.1,0
					c0,0-0.1,0-0.1,0c0,0-0.1,0-0.1,0c0,0-0.1,0-0.1,0l0,0c0,0-0.1,0-0.1-0.1c0,0,0-0.1-0.1-0.1l0,0c0,0,0-0.1,0-0.1
					c0,0,0-0.1,0-0.1l0,0l0,0c0,0,0-0.1,0.1-0.1c0,0,0.1,0,0.1-0.1c0,0,0.1,0,0.1-0.1c0.1,0,0.1,0,0.2,0c0.1,0,0.1,0,0.2,0
					c0.1,0,0.1,0,0.2,0c0.1,0,0.2,0,0.3,0c0.1,0,0.2,0,0.2,0c0.1,0,0.1,0,0.2,0.1c0.1,0,0.1,0,0.2,0.1c0.1,0,0.1,0.1,0.2,0.1
					c0,0,0.1,0.1,0.1,0.2c0,0.1,0.1,0.1,0.1,0.2c0,0.1,0,0.1,0,0.2v1.5c0,0,0,0.1,0,0.1c0,0,0,0.1-0.1,0.1c0,0-0.1,0-0.1,0.1
					C15.7,22,15.7,22,15.6,22z M14.7,20.8c-0.1,0-0.1,0-0.2,0c-0.1,0-0.1,0-0.1,0c0,0-0.1,0-0.1,0c0,0-0.1,0-0.1,0c0,0,0,0,0,0
					c0,0,0,0,0,0c0,0,0,0,0,0.1c0,0,0,0,0,0.1c0,0,0,0.1,0,0.1c0,0,0,0,0,0.1c0,0,0,0,0,0c0,0,0,0,0.1,0c0,0,0.1,0,0.1,0
					c0,0,0.1,0,0.1,0c0,0,0.1,0,0.1,0c0.1,0,0.1,0,0.2,0c0.1,0,0.1,0,0.2,0c0.1,0,0.1,0,0.2,0c0.1,0,0.1,0,0.2,0c0,0,0.1,0,0.1,0
					c0,0,0,0,0,0c0,0,0-0.1,0-0.1c0,0,0-0.1,0-0.1c0-0.1,0-0.1,0-0.1c0,0,0-0.1,0-0.1c0,0,0,0,0,0c0,0,0,0-0.1,0c0,0-0.1,0-0.2,0
					c-0.1,0-0.1,0-0.2,0C14.9,20.8,14.8,20.8,14.7,20.8z"/>
			</g>
		</g>
		<path id="XMLID_2104_" class="st3" d="M12.1,8.9c-0.1,0-0.2,0-0.2-0.1c0-0.1,0-0.1,0-0.2c0-0.1,0.1-0.1,0.1-0.1
			c0.3-0.1,0.5-0.3,0.6-0.6c0.1-0.2,0-0.3,0-0.5c-0.1-0.1-0.1-0.2-0.2-0.3c-0.1-0.1-0.1-0.2-0.2-0.3C12,6.7,12,6.6,12,6.5
			c0-0.1,0-0.2,0-0.3c0,0,0-0.1,0-0.1C12.2,5.5,12.5,5,13,4.8c0,0,0.1,0,0.1,0c0.1,0,0.2,0,0.2,0.1c0,0.1,0,0.1,0,0.2
			c0,0.1-0.1,0.1-0.1,0.1c0,0-0.1,0-0.1,0.1l0,0c0,0,0,0,0,0l0,0c0,0,0,0,0,0c-0.1,0-0.1,0.1-0.2,0.2c-0.1,0.1-0.2,0.2-0.2,0.4
			c0,0.1-0.1,0.2-0.1,0.3c0,0,0,0,0,0.1c0,0,0,0.1,0,0.1l0,0l0,0c0,0,0,0,0,0.1c0,0,0.1,0.1,0.1,0.2c0.2,0.4,0.5,0.7,0.4,1.2
			c-0.1,0.4-0.4,0.8-0.8,1C12.2,8.9,12.1,8.9,12.1,8.9z"/>
		<path id="XMLID_2103_" class="st3" d="M10.4,10.3c-0.7,0-1.4,0-1.9-0.1C7.3,10,7.1,9.7,7.1,9.5c0-0.4,0.6-0.6,0.8-0.7
			c0.4-0.1,0.9-0.2,1.5-0.3L9.5,9c-0.6,0.1-1,0.2-1.4,0.3c0,0,0,0,0,0L8,9.4C8,9.4,8,9.5,8,9.6l0.1,0c0,0,0,0,0,0
			c0.5,0.1,1.4,0.2,2.3,0.2c0.3,0,0.6,0,0.9,0c1.7-0.1,2.9-0.3,3.4-0.5l0.2,0.5c-0.7,0.3-2,0.5-3.6,0.6C11,10.3,10.7,10.3,10.4,10.3
			z"/>
		<path id="XMLID_2102_" class="st3" d="M10.7,12c-1.5,0-2.1-0.3-2.3-0.5c-0.2-0.2-0.2-0.3-0.2-0.4c0-0.1,0-0.3,0.6-0.5L8.9,11
			c0,0-0.3,0.2-0.3,0.2l0.3,0.1c0.2,0.1,0.7,0.2,1.8,0.2c0.3,0,0.5,0,0.8,0c1-0.1,2.3-0.3,2.7-0.4l0.1,0.5c-0.4,0.1-1.7,0.3-2.8,0.4
			C11.2,12,10.9,12,10.7,12z"/>
		<path id="XMLID_2101_" class="st3" d="M9.3,12.9L9.3,12.9c0,0.2,0.1,0.3,0.2,0.4c0.2,0.1,0.7,0.2,1.3,0.2c0.9,0,2.3-0.1,3-0.4
			l0.2,0.5c-0.8,0.4-2.2,0.5-3.2,0.5c-0.7,0-1.2-0.1-1.5-0.3c-0.3-0.2-0.5-0.5-0.5-0.8c0-0.2,0.2-0.4,0.3-0.5l0.2,0.4"/>
		<path id="XMLID_2100_" class="st3" d="M11.1,15.9c-1.3,0-2.4-0.1-3.4-0.3c-1.9-0.4-1.9-0.8-1.9-1c0-0.2,0.1-0.3,0.2-0.4
			c0.3-0.3,1-0.5,1.8-0.5v0.5c-0.7,0-1.1,0.2-1.3,0.3l-0.2,0.1l0.2,0.1C6.6,14.8,7.1,15,8,15.1c0.9,0.2,2,0.2,3.1,0.2
			c0.2,0,0.4,0,0.7,0c3-0.1,4.5-0.7,5.3-1.3l0.3,0.4c-0.8,0.6-2.4,1.3-5.6,1.4C11.6,15.9,11.3,15.9,11.1,15.9z"/>
		<path id="XMLID_2099_" class="st3" d="M11.6,17.1c-1.5,0-2.9-0.1-4.1-0.4l0.1-0.5c1.1,0.3,2.5,0.4,4,0.4c3.3,0,5.2-0.9,6.3-1.6
			l0.3,0.4C17.1,16.2,15.1,17.1,11.6,17.1z"/>
		<path id="XMLID_2098_" class="st3" d="M15.3,11.6c0.2,0,0.5-0.1,0.7-0.2c0.5-0.2,1-0.6,1.2-0.9c0.1-0.2,0.4-0.6,0.2-1
			c-0.1-0.3-0.6-0.6-1.2-0.6c-0.1,0-0.3,0-0.4,0l-0.1-0.5c0.2,0,0.3,0,0.5,0c0.8,0,1.4,0.3,1.7,0.9c0.2,0.4,0.1,1-0.3,1.5
			c-0.3,0.5-0.8,0.9-1.5,1.1c-0.3,0.1-0.5,0.2-0.8,0.2L15.3,11.6z"/>
		<path id="XMLID_2097_" class="st3" d="M11.6,7.9c-0.1,0-0.2-0.1-0.2-0.1c-0.3-0.4-0.7-0.9-0.8-1.5c-0.1-0.6,0-1.1,0.3-1.5
			c0.2-0.2,0.4-0.4,0.7-0.6C11.7,4,11.9,3.8,12,3.7c0.5-0.4,0.6-0.9,0.5-1.4c0-0.1,0-0.1,0-0.2C12.6,2,12.7,2,12.8,2
			c0.1,0,0.2,0.1,0.3,0.2c0.1,0.5,0,1.1-0.3,1.5c-0.2,0.3-0.5,0.6-0.9,0.8c-0.1,0.1-0.2,0.1-0.3,0.2C11.1,5.1,11,5.5,11,6
			c0.1,0.5,0.4,1,0.7,1.4l0,0.1c0,0,0,0.1,0,0.2c0,0.1-0.1,0.2-0.1,0.2C11.7,7.9,11.6,7.9,11.6,7.9z"/>
	</g>
</g>
</svg>
