<?xml version="1.0" encoding="utf-8"?>
<!-- Generator: Adobe Illustrator 19.1.1, SVG Export Plug-In . SVG Version: 6.00 Build 0)  -->
<svg version="1.1" id="Layer_1" xmlns="http://www.w3.org/2000/svg" xmlns:xlink="http://www.w3.org/1999/xlink" x="0px" y="0px"
	 viewBox="0 0 24 24" style="enable-background:new 0 0 24 24;" xml:space="preserve">
<style type="text/css">
	.st0{fill:#FFF8E6;}
	.st1{fill:#78C19D;}
	.st2{fill:#144733;}
	.st3{fill:#F7901E;}
	.st4{opacity:0.4;}
	.st5{clip-path:url(#XMLID_398_);}
	.st6{clip-path:url(#XMLID_412_);}
	.st7{clip-path:url(#XMLID_413_);}
	.st8{fill:#FFF9E7;}
	.st9{opacity:0.3;fill:#114632;}
	.st10{fill:#114632;}
	.st11{fill:#FFFFFF;}
	.st12{opacity:0.7;fill:#114632;}
	.st13{fill:none;stroke:#114632;stroke-width:2;stroke-miterlimit:10;}
	.st14{opacity:0.5;fill:#114632;}
	.st15{opacity:0.7;fill:none;stroke:#114632;stroke-linejoin:bevel;stroke-miterlimit:10;}
	.st16{opacity:0.3;}
	.st17{opacity:0.7;fill:#F7901E;}
	.st18{fill:none;stroke:#F7901E;stroke-width:2;stroke-miterlimit:10;}
	.st19{opacity:0.5;fill:#F7901E;}
	.st20{opacity:0.7;fill:none;stroke:#F7901E;stroke-linejoin:bevel;stroke-miterlimit:10;}
	.st21{fill:#1D7453;}
	.st22{fill:#164538;}
	.st23{fill:none;stroke:#FFFFFF;stroke-miterlimit:10;}
	.st24{opacity:0.3;fill:#FFFFFF;}
	.st25{fill:none;stroke:#FFF9E7;stroke-width:2;stroke-miterlimit:10;}
	.st26{opacity:0.5;fill:#C8E0D7;}
	.st27{opacity:0.7;fill:none;stroke:#C8E0D7;stroke-linejoin:bevel;stroke-miterlimit:10;}
	.st28{clip-path:url(#XMLID_420_);}
	.st29{clip-path:url(#XMLID_421_);}
	.st30{fill:#154733;}
	.st31{fill:#5AB085;}
	.st32{fill:#F7901E;stroke:#F7901E;stroke-width:2;stroke-miterlimit:10;}
	.st33{fill:#F2F2F2;}
	.st34{fill:#F2F2F2;stroke:#E0E0E0;stroke-miterlimit:10;}
	.st35{fill:#C8E8D8;}
	.st36{fill:#ABABAB;}
	.st37{fill:#FFFFFF;stroke:#E5E5E5;stroke-miterlimit:10;}
	.st38{display:none;fill:#FFFFFF;stroke:#E5E5E5;stroke-miterlimit:10;}
	.st39{fill:#257958;}
	.st40{fill:#BAE3CF;}
	.st41{display:none;}
	.st42{fill:#FFFFFF;stroke:#78C19D;stroke-miterlimit:10;}
	.st43{fill:#FFFFFF;stroke:#F1F1F1;stroke-miterlimit:10;}
	.st44{fill:none;stroke:#78C19D;stroke-miterlimit:10;}
	.st45{fill:#78C19D;stroke:#78C19D;stroke-miterlimit:10;}
	.st46{fill:#B2B2B2;}
	.st47{fill:none;stroke:#B2B2B2;stroke-miterlimit:10;}
	.st48{fill:#B2B2B2;stroke:#B2B2B2;stroke-miterlimit:10;}
	.st49{fill:none;stroke:#78C19D;stroke-width:0.5;stroke-miterlimit:10;}
	.st50{clip-path:url(#XMLID_901_);}
	.st51{clip-path:url(#XMLID_902_);}
	.st52{fill:#FFFBF2;}
	.st53{fill:#FFFBF2;stroke:#F0EBDF;stroke-miterlimit:10;}
	.st54{fill:#FFFFFF;stroke:#E8DBBA;stroke-miterlimit:10;}
	.st55{fill:#636363;}
	.st56{opacity:0.75;}
	.st57{fill:#F5EEDC;}
	.st58{fill:none;stroke:#F5EEDC;stroke-miterlimit:10;}
	.st59{fill:#F5EEDC;stroke:#F5EEDC;stroke-miterlimit:10;}
	.st60{opacity:0.1;}
</style>
<g id="New_Symbol">
</g>
<g id="XMLID_1815_">
	<g id="XMLID_1989_">
		<path id="XMLID_2002_" class="st3" d="M15.8,20.6L15.8,20.6l-0.3,0.6c0,0.1-0.1,0.1-0.2,0.1c0,0-0.1,0-0.1,0L12.4,20h-0.4
			l-2.7,1.3c0,0-0.1,0-0.1,0c-0.1,0-0.2-0.1-0.2-0.1l-1.6-2.8l-3.1-0.5c-0.1,0-0.2-0.2-0.2-0.3l0.4-2.9l-0.1-0.3l-2.1-2.1
			c-0.1-0.1-0.1-0.3,0-0.4l2.1-2.1l0.1-0.3L4.1,6.5c0-0.1,0.1-0.3,0.2-0.3l3-0.5l0.3-0.2L9,2.9c0-0.1,0.1-0.1,0.2-0.1
			c0,0,0.1,0,0.1,0L12.1,4h0.4l2.7-1.3c0,0,0.1,0,0.1,0c0.1,0,0.2,0.1,0.2,0.1l1.4,2.6l0.3,0.2l3,0.5c0.1,0,0.2,0.2,0.2,0.3L20,9.4
			l0.1,0.3l2.1,2.1c0.1,0.1,0.1,0.3,0,0.4l-2.1,2.1L20,14.6l0.4,2.9c0,0.1-0.1,0.3-0.2,0.3l-3.1,0.5 M12.3,19.3c0,0,0.1,0,0.1,0
			l2.4,1.1l0.6-0.2l1.2-2.3c0-0.1,0.1-0.1,0.2-0.1l2.6-0.4l0.4-0.5l-0.4-2.6c0-0.1,0-0.2,0.1-0.2l1.9-1.9v-0.6l-1.8-1.9
			c-0.1-0.1-0.1-0.1-0.1-0.2l0.4-2.6l-0.4-0.5l-2.6-0.4c-0.1,0-0.2-0.1-0.2-0.1l-1.2-2.3l-0.6-0.2l-2.4,1.1c0,0-0.1,0-0.1,0
			c0,0-0.1,0-0.1,0L9.8,3.5L9.2,3.7L7.9,6c0,0.1-0.1,0.1-0.2,0.1L5.1,6.6L4.8,7.1l0.4,2.6c0,0.1,0,0.2-0.1,0.2l-1.8,1.9v0.6l1.9,1.9
			c0.1,0.1,0.1,0.1,0.1,0.2l-0.4,2.6l0.4,0.5l2.6,0.4c0.1,0,0.2,0.1,0.2,0.1l1.2,2.3l0.6,0.2l2.4-1.1C12.2,19.3,12.2,19.3,12.3,19.3
			z"/>
		<path id="XMLID_1999_" class="st3" d="M12.3,17c-2.8,0-5.1-2.2-5.1-5c0-2.8,2.3-5,5.1-5c2.8,0,5.1,2.2,5.1,5
			C17.4,14.8,15.1,17,12.3,17z M12.3,7.5c-2.5,0-4.6,2-4.6,4.5c0,2.5,2.1,4.5,4.6,4.5c2.5,0,4.6-2,4.6-4.5
			C16.9,9.5,14.8,7.5,12.3,7.5z"/>
		<path id="XMLID_1990_" class="st3" d="M11.5,13.7c-0.1,0-0.1,0-0.2-0.1l-1.5-1.5c-0.1-0.1-0.1-0.1-0.1-0.2c0-0.1,0-0.1,0.1-0.2
			c0.1-0.1,0.1-0.1,0.2-0.1c0.1,0,0.1,0,0.2,0.1l1.3,1.3l2.9-2.7l0,0c0,0,0.1-0.1,0.2-0.1c0.1,0,0.1,0,0.2,0.1
			c0.1,0.1,0.1,0.1,0.1,0.2c0,0.1,0,0.1-0.1,0.2l-3,3C11.6,13.7,11.6,13.7,11.5,13.7z"/>
	</g>
</g>
</svg>
