<?xml version="1.0" encoding="utf-8"?>
<!-- Generator: Adobe Illustrator 19.1.1, SVG Export Plug-In . SVG Version: 6.00 Build 0)  -->
<svg version="1.1" id="Layer_1" xmlns="http://www.w3.org/2000/svg" xmlns:xlink="http://www.w3.org/1999/xlink" x="0px" y="0px"
	 viewBox="0 0 24 24" style="enable-background:new 0 0 24 24;" xml:space="preserve">
<style type="text/css">
	.st0{fill:#FFF8E6;}
	.st1{fill:#78C19D;}
	.st2{fill:#144733;}
	.st3{fill:#F7901E;}
	.st4{opacity:0.4;}
	.st5{clip-path:url(#XMLID_715_);}
	.st6{clip-path:url(#XMLID_716_);}
	.st7{clip-path:url(#XMLID_717_);}
	.st8{fill:#FFF9E7;}
	.st9{opacity:0.3;fill:#114632;}
	.st10{fill:#114632;}
	.st11{fill:#FFFFFF;}
	.st12{opacity:0.7;fill:#114632;}
	.st13{fill:none;stroke:#114632;stroke-width:2;stroke-miterlimit:10;}
	.st14{opacity:0.5;fill:#114632;}
	.st15{opacity:0.7;fill:none;stroke:#114632;stroke-linejoin:bevel;stroke-miterlimit:10;}
	.st16{opacity:0.3;}
	.st17{opacity:0.7;fill:#F7901E;}
	.st18{fill:none;stroke:#F7901E;stroke-width:2;stroke-miterlimit:10;}
	.st19{opacity:0.5;fill:#F7901E;}
	.st20{opacity:0.7;fill:none;stroke:#F7901E;stroke-linejoin:bevel;stroke-miterlimit:10;}
	.st21{fill:#1D7453;}
	.st22{fill:#164538;}
	.st23{fill:none;stroke:#FFFFFF;stroke-miterlimit:10;}
	.st24{opacity:0.3;fill:#FFFFFF;}
	.st25{fill:none;stroke:#FFF9E7;stroke-width:2;stroke-miterlimit:10;}
	.st26{opacity:0.5;fill:#C8E0D7;}
	.st27{opacity:0.7;fill:none;stroke:#C8E0D7;stroke-linejoin:bevel;stroke-miterlimit:10;}
	.st28{clip-path:url(#XMLID_719_);}
	.st29{clip-path:url(#XMLID_723_);}
	.st30{fill:#154733;}
	.st31{fill:#5AB085;}
	.st32{fill:#F7901E;stroke:#F7901E;stroke-width:2;stroke-miterlimit:10;}
	.st33{fill:#F2F2F2;}
	.st34{fill:#F2F2F2;stroke:#E0E0E0;stroke-miterlimit:10;}
	.st35{fill:#C8E8D8;}
	.st36{fill:#ABABAB;}
	.st37{fill:#FFFFFF;stroke:#E5E5E5;stroke-miterlimit:10;}
	.st38{display:none;fill:#FFFFFF;stroke:#E5E5E5;stroke-miterlimit:10;}
	.st39{fill:#257958;}
	.st40{fill:#BAE3CF;}
	.st41{display:none;}
	.st42{fill:#FFFFFF;stroke:#78C19D;stroke-miterlimit:10;}
	.st43{fill:#FFFFFF;stroke:#F1F1F1;stroke-miterlimit:10;}
	.st44{fill:none;stroke:#78C19D;stroke-miterlimit:10;}
	.st45{fill:#78C19D;stroke:#78C19D;stroke-miterlimit:10;}
	.st46{fill:#B2B2B2;}
	.st47{fill:none;stroke:#B2B2B2;stroke-miterlimit:10;}
	.st48{fill:#B2B2B2;stroke:#B2B2B2;stroke-miterlimit:10;}
	.st49{fill:none;stroke:#78C19D;stroke-width:0.5;stroke-miterlimit:10;}
	.st50{clip-path:url(#XMLID_901_);}
	.st51{clip-path:url(#XMLID_902_);}
	.st52{fill:#FFFBF2;}
	.st53{fill:#FFFBF2;stroke:#F0EBDF;stroke-miterlimit:10;}
	.st54{fill:#FFFFFF;stroke:#E8DBBA;stroke-miterlimit:10;}
	.st55{fill:#636363;}
	.st56{opacity:0.75;}
	.st57{fill:#F5EEDC;}
	.st58{fill:none;stroke:#F5EEDC;stroke-miterlimit:10;}
	.st59{fill:#F5EEDC;stroke:#F5EEDC;stroke-miterlimit:10;}
	.st60{opacity:0.1;}
</style>
<g id="New_Symbol">
</g>
<g id="XMLID_1651_">
	<g id="XMLID_2049_">
		<path id="XMLID_2054_" class="st3" d="M21.8,3.8H2.2C2.1,3.8,2,3.9,2,4.1v14.6C2,18.9,2.1,19,2.2,19h8.8c0.1,0,0.2,0.1,0.2,0.2
			v0.2c0,0.1-0.1,0.2-0.2,0.2H6.6c-0.1,0-0.2,0.1-0.2,0.2l0,0c0,0.1,0.1,0.2,0.2,0.2h9.9c0.1,0,0.2-0.1,0.2-0.2v0
			c0-0.1-0.1-0.2-0.2-0.2h-4.4c-0.1,0-0.2-0.1-0.2-0.2v-0.2c0-0.1,0.1-0.2,0.2-0.2h9.7c0.1,0,0.2-0.1,0.2-0.2V4.1
			C22,3.9,21.9,3.8,21.8,3.8z M21.5,18.2c0,0.1-0.1,0.2-0.2,0.2H2.7c-0.1,0-0.2-0.1-0.2-0.2V4.6c0-0.1,0.1-0.2,0.2-0.2h18.5
			c0.1,0,0.2,0.1,0.2,0.2V18.2z"/>
		<path id="XMLID_2050_" class="st3" d="M11.7,15.5c-0.2,0-0.3-0.1-0.4-0.2c-0.1-0.1-0.2-0.2-0.2-0.4c0-0.3,0.3-0.5,0.6-0.5h0.6
			c0.2,0,0.4,0.1,0.5,0.3l0,0c0,0,0.1,0.1,0.1,0.1h0.6c0.7,0,1.2-0.5,1.4-1.5l0-0.1h-0.3c-0.3,0-0.6-0.3-0.6-0.6v-2.4
			c0-0.3,0.3-0.6,0.6-0.6h0.1l0-0.1c-0.3-1.3-1.4-2.2-2.7-2.2h-0.3c-1.3,0-2.4,0.9-2.7,2.2l0,0.1h0.1c0.3,0,0.6,0.3,0.6,0.6v2.4
			c0,0.3-0.3,0.6-0.6,0.6H8.2c-0.4,0-1-0.3-1-1.3v-0.6c0-1.3,0.6-1.7,1-1.7h0.5l0,0c0.1-0.7,0.5-1.4,1.1-1.9
			c0.6-0.5,1.3-0.8,2.1-0.8h0.3c0.8,0,1.5,0.3,2.1,0.8c0.6,0.5,1,1.2,1.1,1.9l0,0h0.5c0.4,0,1,0.3,1,1.7v0.6c0,1-0.6,1.3-1,1.3h-0.5
			l0,0c0,0.1,0,0.2-0.1,0.2c-0.4,1.3-1.2,1.6-1.7,1.6H13c-0.1,0-0.1,0-0.1,0.1c-0.1,0.2-0.3,0.3-0.5,0.3H11.7z M14.7,10
			c-0.1,0-0.2,0.1-0.2,0.2v2.4c0,0.1,0.1,0.2,0.2,0.2h1.1c0.2,0,0.6-0.2,0.6-0.9v-0.6c0-1-0.4-1.3-0.6-1.3H14.7z M8.2,10
			c-0.2,0-0.6,0.3-0.6,1.3v0.6c0,0.7,0.4,0.9,0.6,0.9h1.1c0.1,0,0.2-0.1,0.2-0.2v-2.4c0-0.1-0.1-0.2-0.2-0.2H8.2z"/>
	</g>
</g>
</svg>
